<svg width="25px" height="25px" viewBox="0 0 24 31" fill="none" xmlns="http://www.w3.org/2000/svg">
<path d="M24.0001 9.53289V5.01066C24.0001 4.48349 23.5723 4.05569 23.0457 4.05569H16.7224V0.954413C16.7224 0.427802 16.2952 0 15.7686 0H8.6105C8.08333 0 7.65553 0.427802 7.65553 0.954413V4.05569H1.33283C0.805658 4.05569 0.378418 4.48349 0.378418 5.01066V9.53289C0.378418 10.0595 0.805658 10.4867 1.33283 10.4867H1.6068V29.5868C1.6068 30.1134 2.03404 30.5412 2.56065 30.5412H19.1118C21.1301 30.5412 22.7723 28.8996 22.7723 26.8819V10.4873H23.0451C23.5723 10.4873 24.0001 10.0601 24.0001 9.53289ZM9.56435 1.90882H14.8136V4.05569H9.56435V1.90882ZM20.864 26.8824C20.864 27.8475 20.078 28.6324 19.1124 28.6324H3.51619V10.4873L20.864 10.4884V26.8824ZM22.0907 8.57848H2.28668V5.96508H8.6105H15.7686H22.0913V8.57848H22.0907Z" fill="black"/>
<path d="M8.37049 14.3162H6.46167V25.5305H8.37049V14.3162Z" fill="black"/>
<path d="M13.1425 14.3162H11.2336V25.5305H13.1425V14.3162Z" fill="black"/>
<path d="M17.9144 14.3162H16.0056V25.5305H17.9144V14.3162Z" fill="black"/>
</svg>
