<svg width="25px" height="25px" viewBox="0 0 33 31" fill="none" xmlns="http://www.w3.org/2000/svg">
<path d="M10.1304 14.3802L10.1292 14.3808C10.1281 14.3819 10.1281 14.3831 10.1281 14.3831C10.0484 14.4625 9.98849 14.5586 9.93964 14.6609C9.92626 14.6867 9.91696 14.7101 9.90649 14.737C9.89602 14.7633 9.88149 14.7873 9.87334 14.8153L7.5425 23.2912C7.45062 23.6273 7.54832 23.9858 7.7978 24.2322C7.98622 24.4168 8.23862 24.5169 8.49624 24.5169C8.58231 24.5169 8.67012 24.506 8.75386 24.4826L17.0444 22.2798C17.0991 22.289 17.1514 22.3113 17.2066 22.3113C17.4602 22.3113 17.7132 22.2164 17.9062 22.0266L31.3318 8.8274C32.0471 8.12365 32.4426 7.18779 32.4426 6.19248C32.4426 5.19717 32.0471 4.26131 31.3318 3.55756L28.9161 1.18276C27.4849 -0.225312 24.9848 -0.223025 23.556 1.18276L10.1304 14.3802ZM24.9552 2.55653C25.6379 1.88365 26.8336 1.88422 27.5186 2.5571L29.9344 4.93133C30.2775 5.26806 30.4659 5.71569 30.4659 6.19248C30.4659 6.66927 30.2775 7.11633 29.9344 7.45363L29.2074 8.16824L24.2271 3.27286L24.9552 2.55653ZM22.829 4.6472L27.8094 9.54258L17.2078 19.9651L12.2263 15.0691L22.829 4.6472ZM11.6442 17.2444L15.2131 20.7534L9.90068 22.1661L11.3365 16.9431L11.6442 17.2444Z" fill="black"/>
<path d="M24.0968 9.67049L22.6985 8.29626L16.4954 14.3959L17.8937 15.7702L24.0968 9.67049Z" fill="black"/>
<path d="M0.988049 30.8272H27.588C29.6792 30.8272 31.3785 29.155 31.3785 27.0998V13.9406H29.4018V27.1003C29.4018 28.0842 28.5888 28.8834 27.588 28.8834H1.97726V3.09792H18.8491V1.15417H0.988049C0.441976 1.15417 0 1.58923 0 2.12605V29.8547C0 30.3915 0.441395 30.8272 0.988049 30.8272Z" fill="black"/>
</svg>
